<svg width="20" height="19" viewBox="0 0 20 19" fill="none" xmlns="http://www.w3.org/2000/svg">
<path d="M13.2143 16.6499C12.1284 17.1542 10.9231 17.4824 9.65398 17.4824C4.87465 17.4824 1.00023 12.8276 1.00023 11.6449C1.00023 10.9745 2.24509 9.18847 4.19399 7.767M17.2693 13.5157C17.9316 12.7189 18.3077 12.0134 18.3077 11.6449C18.3077 10.4621 14.4333 5.80737 9.65398 5.80737C11.7569 5.80737 13.4616 7.49849 13.4616 9.58459M9.65395 13.3618C7.55104 13.3618 5.8463 11.6707 5.8463 9.58459M19 5.80749C16.3642 3.62605 13.287 2.37366 10.0001 2.37366C8.81545 2.37366 7.65799 2.53636 6.53863 2.84661M1.00023 5.80749C1.24455 5.60528 1.49267 5.41106 1.7444 5.22507M1 1.00006L17.7141 17.8749" stroke="black" stroke-linecap="round"/>
</svg>
