<svg width="20" height="16" viewBox="0 0 20 16" fill="none" xmlns="http://www.w3.org/2000/svg">
<path d="M9.65385 3.90906C4.87446 3.90906 1 8.53029 1 9.70451C1 10.8787 4.87446 15.5 9.65385 15.5C14.4332 15.5 18.3077 10.8787 18.3077 9.70451C18.3077 8.53029 14.4332 3.90906 9.65385 3.90906ZM9.65385 3.90906C7.55092 3.90906 5.84619 5.58799 5.84619 7.65906C5.84619 9.73013 7.55095 11.4091 9.65388 11.4091C11.7568 11.4091 13.4616 9.73013 13.4616 7.65906C13.4616 5.58799 11.7568 3.90906 9.65385 3.90906ZM19 3.90909C16.3642 1.74337 13.2869 0.5 10 0.5C6.71309 0.5 3.63584 1.74337 1 3.90909" stroke="black" stroke-linecap="round"/>
</svg>
